<?xml version="1.0" encoding="utf-8"?>
<!-- Generator: Adobe Illustrator 13.0.0, SVG Export Plug-In . SVG Version: 6.00 Build 14948)  -->
<!DOCTYPE svg PUBLIC "-//W3C//DTD SVG 1.1//EN" "http://www.w3.org/Graphics/SVG/1.1/DTD/svg11.dtd">
<svg version="1.1" xmlns="http://www.w3.org/2000/svg" xmlns:xlink="http://www.w3.org/1999/xlink" x="0px" y="0px" width="100px"
	 height="100px" viewBox="0 0 100 100" enable-background="new 0 0 100 100" xml:space="preserve">
<g id="Layer_1">
	<rect x="-4.167" y="-6.167" width="111" height="112.667"/>
	<g>
		<rect x="16.859" y="35.606" fill="#FFFFFF" width="10.406" height="10.406"/>
		<rect x="16.859" y="52.688" fill="#FFFFFF" width="10.406" height="10.406"/>
		<rect x="16.693" y="69.602" fill="#FFFFFF" width="10.406" height="10.406"/>
		<rect x="29.628" y="38.709" fill="#FFFFFF" width="19.029" height="5.328"/>
		<rect x="29.628" y="54.961" fill="#FFFFFF" width="51.03" height="5.328"/>
		<rect x="29.628" y="72.207" fill="#FFFFFF" width="51.03" height="5.328"/>
		<g>
			<path fill-rule="evenodd" clip-rule="evenodd" fill="#FFFFFF" d="M69.691,34.417c0.115-1.779,1.256-2.898,1.375-4.585
				c0.242-3.393-3.301-8.303-6.572-9.171c-0.777,4.864,0.508,11.524-0.152,16.508c-0.512,3.859-7.098,6.517-10.24,3.209
				c-1.281-1.346-1.744-4.51-0.459-6.267c1.469-2.009,6.631-2.367,8.406-0.153c0.102-6.522-0.203-13.45,0.152-19.718
				c1.973-0.289,3.328,1.799,4.74,3.21c2.502,2.502,6.215,5.157,6.266,9.783C73.242,30.344,71.766,32.608,69.691,34.417z"/>
			<path fill-rule="evenodd" clip-rule="evenodd" fill="#FFFFFF" d="M80.316,43.347c-0.057-1.286-0.125-2.57-0.051-3.821v0.151
				c0.293-4.525-0.389-9.19-0.053-13.73c-0.686,0-1.373,0-2.061,0c0.133,5.329,0.172,10.838,0.152,16.661
				c-0.695,0.101-1.385-0.997-2.752-1.221c-4.014-0.66-7.4,2.053-6.268,6.115c1.273,4.547,9.527,4.065,10.867-0.294
				c-0.061-0.064-0.104-0.128-0.039-0.191c-0.064,0.063-0.021,0.127,0.039,0.191c0.061-0.201,0.109-0.407,0.141-0.623L80.316,43.347
				z"/>
		</g>
	</g>
</g>
<g id="Layer_2" display="none">
	<rect x="-4.5" y="-6.5" display="inline" width="111" height="112.667"/>
	<g display="inline">
		<rect x="16.526" y="35.94" fill="#929292" width="10.406" height="10.406"/>
		<rect x="16.526" y="53.021" fill="#929292" width="10.406" height="10.406"/>
		<rect x="16.36" y="69.936" fill="#929292" width="10.406" height="10.406"/>
		<rect x="29.295" y="39.043" fill="#929292" width="19.029" height="5.328"/>
		<rect x="29.295" y="55.295" fill="#929292" width="51.029" height="5.328"/>
		<rect x="29.295" y="72.541" fill="#929292" width="51.029" height="5.328"/>
		<g>
			<path fill-rule="evenodd" clip-rule="evenodd" fill="#929292" d="M69.357,34.751c0.115-1.779,1.256-2.898,1.375-4.585
				c0.242-3.393-3.301-8.303-6.572-9.171c-0.777,4.864,0.508,11.524-0.152,16.508c-0.512,3.859-7.098,6.517-10.24,3.209
				c-1.281-1.346-1.744-4.51-0.459-6.267c1.469-2.009,6.631-2.367,8.406-0.153c0.102-6.522-0.203-13.45,0.152-19.718
				c1.973-0.289,3.328,1.799,4.74,3.21c2.502,2.502,6.215,5.157,6.266,9.783C72.908,30.678,71.432,32.942,69.357,34.751z"/>
			<path fill-rule="evenodd" clip-rule="evenodd" fill="#929292" d="M79.982,43.681c-0.057-1.286-0.125-2.57-0.051-3.821v0.151
				c0.293-4.525-0.389-9.19-0.053-13.73c-0.686,0-1.373,0-2.061,0c0.133,5.329,0.172,10.838,0.152,16.661
				c-0.695,0.101-1.385-0.997-2.752-1.221c-4.014-0.66-7.4,2.053-6.268,6.115c1.273,4.547,9.527,4.065,10.867-0.294
				c-0.061-0.064-0.104-0.128-0.039-0.191c-0.064,0.063-0.021,0.127,0.039,0.191c0.061-0.201,0.109-0.407,0.141-0.623L79.982,43.681
				z"/>
		</g>
	</g>
</g>
</svg>
