<?xml version="1.0" encoding="utf-8"?>
<!-- Generator: Adobe Illustrator 13.0.0, SVG Export Plug-In . SVG Version: 6.00 Build 14948)  -->
<!DOCTYPE svg PUBLIC "-//W3C//DTD SVG 1.1//EN" "http://www.w3.org/Graphics/SVG/1.1/DTD/svg11.dtd">
<svg version="1.1" xmlns="http://www.w3.org/2000/svg" xmlns:xlink="http://www.w3.org/1999/xlink" x="0px" y="0px" width="300px"
	 height="50px" viewBox="0 0 300 50" enable-background="new 0 0 300 50" xml:space="preserve">
<g id="Layer_1" display="none">
	<rect x="0" y="0.056" display="inline" fill="#FFFFFF" width="300.5" height="50.111"/>
	<rect x="4.257" y="5.267" display="inline" width="40.94" height="40.872"/>
	<g display="inline">
		<path fill="#B3B3BA" d="M42.134,43.068c-0.897,0.833-2.489,0.767-3.894-0.984l-3.228-4.68l-3.225-3.275
			c-0.833-0.896-6.547-3.944-5.649-4.778l2.979-3.022c0.897-0.832,3.68,4.958,4.514,5.856l3.275,3.325c0,0,3.266,2.693,4.5,3.67
			C42.89,40.355,43.033,42.234,42.134,43.068L42.134,43.068z"/>
		<circle fill="#B3B3BA" cx="34.39" cy="34.782" r="2.767"/>
		<circle stroke="#B5B3BA" stroke-width="3" cx="21.452" cy="21.506" r="12.146"/>
	</g>
</g>
<g id="Layer_2">
	<rect x="4.188" y="4.813" fill="#FFFFFF" width="41.142" height="41.074"/>
	<g>
		<path fill="#B3B3BA" d="M42.253,42.801c-0.901,0.838-2.501,0.772-3.913-0.987l-3.244-4.703l-3.24-3.292
			c-0.837-0.9-6.579-3.965-5.677-4.803l2.993-3.036c0.902-0.838,3.698,4.981,4.536,5.885L37,35.207c0,0,3.282,2.704,4.522,3.688
			C43.012,40.074,43.156,41.963,42.253,42.801L42.253,42.801z"/>
		<circle fill="#B3B3BA" cx="34.47" cy="34.474" r="2.78"/>
		<circle fill="#FFFFFF" stroke="#B5B3BA" stroke-width="3" cx="21.469" cy="21.132" r="12.206"/>
	</g>
</g>
</svg>
