<?xml version="1.0" encoding="utf-8"?>
<!-- Generator: Adobe Illustrator 13.0.0, SVG Export Plug-In . SVG Version: 6.00 Build 14948)  -->
<!DOCTYPE svg PUBLIC "-//W3C//DTD SVG 1.1//EN" "http://www.w3.org/Graphics/SVG/1.1/DTD/svg11.dtd">
<svg version="1.1" xmlns="http://www.w3.org/2000/svg" xmlns:xlink="http://www.w3.org/1999/xlink" x="0px" y="0px" width="300px"
	 height="50px" viewBox="0 0 300 50" enable-background="new 0 0 300 50" xml:space="preserve">
<g id="Layer_1">
	<rect x="0" y="0.056" fill="#FFFFFF" width="300.5" height="50.111"/>
	<rect x="0" y="0.056" width="50.166" height="50.083"/>
	<g>
		<path fill="#B3B3BA" d="M46.414,46.376c-1.1,1.021-3.049,0.94-4.771-1.205l-3.956-5.735l-3.951-4.013
			c-1.021-1.099-8.022-4.833-6.922-5.855l3.649-3.703c1.101-1.021,4.51,6.075,5.531,7.176l4.013,4.075c0,0,4.002,3.299,5.514,4.496
			C47.34,43.052,47.515,45.354,46.414,46.376L46.414,46.376z"/>
		<circle fill="#B3B3BA" cx="36.924" cy="36.223" r="3.39"/>
		<circle stroke="#B5B3BA" stroke-width="3" cx="21.071" cy="19.955" r="14.883"/>
	</g>
</g>
<g id="Layer_2">
	<rect x="-3.25" y="-4.333" fill="#FFFFFF" width="60.414" height="55.997"/>
	<g>
		<path fill="#B3B3BA" d="M45.675,45.138c-1.05,0.976-2.911,0.898-4.555-1.149l-3.776-5.476l-3.771-3.83
			c-0.975-1.049-7.658-4.614-6.608-5.591l3.483-3.533c1.05-0.977,4.305,5.798,5.28,6.848l3.831,3.893c0,0,3.821,3.148,5.265,4.292
			C46.559,41.965,46.726,44.163,45.675,45.138L45.675,45.138z"/>
		<circle fill="#B3B3BA" cx="36.615" cy="35.445" r="3.236"/>
		<circle fill="#FFFFFF" stroke="#B5B3BA" stroke-width="3" cx="21.481" cy="19.916" r="14.208"/>
	</g>
</g>
</svg>
